<mxfile host="Electron" modified="2025-03-17T05:25:24.986Z" agent="Mozilla/5.0 (Macintosh; Intel Mac OS X 10_15_7) AppleWebKit/537.36 (KHTML, like Gecko) draw.io/24.6.4 Chrome/124.0.6367.207 Electron/30.0.6 Safari/537.36" etag="fickUNbCyfdYXhtar6Uj" version="24.6.4" type="device">
  <diagram name="第 1 页" id="wfpSBFlItlzwMULUI7zE">
    <mxGraphModel dx="915" dy="838" grid="1" gridSize="10" guides="1" tooltips="1" connect="1" arrows="1" fold="1" page="1" pageScale="1" pageWidth="827" pageHeight="1169" math="0" shadow="0">
      <root>
        <mxCell id="0" />
        <mxCell id="1" parent="0" />
        <mxCell id="uuThjyKwAVMsswqWCtZC-3" value="Property Table" style="swimlane;childLayout=stackLayout;horizontal=1;startSize=30;horizontalStack=0;rounded=1;fontSize=14;fontStyle=0;strokeWidth=2;resizeParent=0;resizeLast=1;shadow=0;dashed=0;align=center;arcSize=4;whiteSpace=wrap;html=1;" parent="1" vertex="1">
          <mxGeometry x="400" y="130" width="150" height="330" as="geometry" />
        </mxCell>
        <mxCell id="uuThjyKwAVMsswqWCtZC-4" value="PropertyID&amp;nbsp;{PK}&lt;div&gt;Country&lt;/div&gt;&lt;div&gt;Provience&lt;/div&gt;&lt;div&gt;City&lt;/div&gt;&lt;div&gt;PostalCode&lt;br&gt;&lt;/div&gt;&lt;div&gt;&lt;div&gt;Property Address&lt;/div&gt;&lt;div&gt;&lt;span style=&quot;background-color: initial;&quot;&gt;PropertyType&lt;/span&gt;&lt;br&gt;&lt;/div&gt;&lt;div&gt;Build Year&lt;br&gt;&lt;/div&gt;&lt;div&gt;Size of House&lt;br&gt;&lt;/div&gt;&lt;div&gt;Bedrooms&lt;/div&gt;&lt;div&gt;Bathrooms&lt;/div&gt;&lt;div&gt;&lt;span style=&quot;background-color: initial;&quot;&gt;Current Status&lt;/span&gt;&lt;br&gt;&lt;/div&gt;&lt;div&gt;Listing Date&lt;br&gt;Rental Price&lt;br&gt;Selling Price&lt;br&gt;&lt;/div&gt;&lt;div&gt;Description&lt;/div&gt;&lt;div&gt;OwnerCustomerID&lt;/div&gt;&lt;/div&gt;&lt;div&gt;CreateTime&lt;/div&gt;&lt;div&gt;UpdateTime&lt;/div&gt;" style="align=left;strokeColor=none;fillColor=none;spacingLeft=4;fontSize=12;verticalAlign=top;resizable=0;rotatable=0;part=1;html=1;" parent="uuThjyKwAVMsswqWCtZC-3" vertex="1">
          <mxGeometry y="30" width="150" height="300" as="geometry" />
        </mxCell>
        <mxCell id="uuThjyKwAVMsswqWCtZC-7" value="Property Amenities Table" style="swimlane;childLayout=stackLayout;horizontal=1;startSize=35;horizontalStack=0;rounded=1;fontSize=14;fontStyle=0;strokeWidth=2;resizeParent=0;resizeLast=1;shadow=0;dashed=0;align=center;arcSize=4;whiteSpace=wrap;html=1;" parent="1" vertex="1">
          <mxGeometry x="650" y="125" width="200" height="345" as="geometry" />
        </mxCell>
        <mxCell id="uuThjyKwAVMsswqWCtZC-8" value="&lt;div&gt;PropertyAmenitiesID&lt;span style=&quot;background-color: initial;&quot;&gt;&amp;nbsp;&lt;/span&gt;&lt;span style=&quot;background-color: initial;&quot;&gt;{PK}&lt;/span&gt;&lt;/div&gt;&lt;div&gt;PropertyID&lt;/div&gt;Elevator&lt;div&gt;&lt;span style=&quot;background-color: initial;&quot;&gt;Refrigerator&lt;/span&gt;&lt;br&gt;&lt;/div&gt;&lt;div&gt;Cooktop&lt;br&gt;&lt;/div&gt;&lt;div&gt;Microwave&lt;br&gt;&lt;/div&gt;&lt;div&gt;&lt;div&gt;Dishwasher&lt;/div&gt;&lt;/div&gt;&lt;div&gt;&lt;div&gt;Fire Sprinkler System&lt;br&gt;&lt;/div&gt;&lt;/div&gt;&lt;div&gt;&lt;div&gt;&lt;span style=&quot;background-color: initial;&quot;&gt;Washer&lt;/span&gt;&lt;br&gt;&lt;/div&gt;&lt;div&gt;Dryer&lt;/div&gt;&lt;div&gt;&lt;span style=&quot;background-color: initial;&quot;&gt;Heating&lt;/span&gt;&lt;/div&gt;&lt;/div&gt;&lt;div&gt;&lt;span style=&quot;background-color: initial;&quot;&gt;AirConditioning&lt;/span&gt;&lt;/div&gt;&lt;div&gt;SecuritySystem&lt;/div&gt;&lt;div&gt;PetFriendly&lt;/div&gt;&lt;div&gt;Fitness Room&lt;br&gt;&lt;/div&gt;&lt;div&gt;Swimming Pool&lt;br&gt;&lt;/div&gt;&lt;div&gt;Parking Lot&lt;br&gt;&lt;/div&gt;&lt;div&gt;Locker&lt;/div&gt;&lt;div&gt;OtherAmenities&lt;/div&gt;&lt;div&gt;CreateTime&lt;/div&gt;&lt;div&gt;UpdateTime&lt;/div&gt;&lt;div&gt;&lt;br&gt;&lt;/div&gt;&lt;div&gt;&lt;br&gt;&lt;/div&gt;" style="align=left;strokeColor=none;fillColor=none;spacingLeft=4;fontSize=12;verticalAlign=top;resizable=0;rotatable=0;part=1;html=1;" parent="uuThjyKwAVMsswqWCtZC-7" vertex="1">
          <mxGeometry y="35" width="200" height="310" as="geometry" />
        </mxCell>
        <mxCell id="uuThjyKwAVMsswqWCtZC-42" style="edgeStyle=orthogonalEdgeStyle;rounded=0;orthogonalLoop=1;jettySize=auto;html=1;exitX=0.5;exitY=1;exitDx=0;exitDy=0;" parent="uuThjyKwAVMsswqWCtZC-7" source="uuThjyKwAVMsswqWCtZC-8" target="uuThjyKwAVMsswqWCtZC-8" edge="1">
          <mxGeometry relative="1" as="geometry" />
        </mxCell>
        <mxCell id="uuThjyKwAVMsswqWCtZC-9" value="Image Table" style="swimlane;childLayout=stackLayout;horizontal=1;startSize=33;horizontalStack=0;rounded=1;fontSize=14;fontStyle=0;strokeWidth=2;resizeParent=0;resizeLast=1;shadow=0;dashed=0;align=center;arcSize=4;whiteSpace=wrap;html=1;" parent="1" vertex="1">
          <mxGeometry x="150" y="187.5" width="130" height="155" as="geometry" />
        </mxCell>
        <mxCell id="uuThjyKwAVMsswqWCtZC-10" value="&lt;div&gt;&lt;div&gt;ImageID&lt;span style=&quot;background-color: initial;&quot;&gt;&amp;nbsp;{PK}&lt;/span&gt;&lt;/div&gt;&lt;/div&gt;PropertyID&lt;div&gt;&lt;span style=&quot;background-color: initial;&quot;&gt;ImageData&lt;/span&gt;&lt;br&gt;&lt;/div&gt;&lt;div&gt;FileName&lt;/div&gt;&lt;div&gt;ContentType&lt;br&gt;CreateTime&lt;/div&gt;&lt;div&gt;UpdateTime&lt;/div&gt;&lt;div&gt;&lt;br&gt;&lt;/div&gt;" style="align=left;strokeColor=none;fillColor=none;spacingLeft=4;fontSize=12;verticalAlign=top;resizable=0;rotatable=0;part=1;html=1;" parent="uuThjyKwAVMsswqWCtZC-9" vertex="1">
          <mxGeometry y="33" width="130" height="122" as="geometry" />
        </mxCell>
        <mxCell id="uuThjyKwAVMsswqWCtZC-11" value="Customer Table" style="swimlane;childLayout=stackLayout;horizontal=1;startSize=30;horizontalStack=0;rounded=1;fontSize=14;fontStyle=0;strokeWidth=2;resizeParent=0;resizeLast=1;shadow=0;dashed=0;align=center;arcSize=4;whiteSpace=wrap;html=1;" parent="1" vertex="1">
          <mxGeometry x="375" y="640" width="200" height="170" as="geometry" />
        </mxCell>
        <mxCell id="uuThjyKwAVMsswqWCtZC-12" value="Customer ID&amp;nbsp;{PK}&lt;br&gt;Name&lt;div&gt;Phone&lt;br&gt;&lt;/div&gt;&lt;div&gt;Email&lt;br&gt;&lt;/div&gt;&lt;div&gt;Contact Address&lt;br&gt;&lt;/div&gt;&lt;div&gt;&lt;div&gt;Password&lt;/div&gt;&lt;/div&gt;&lt;div&gt;CreateTime&lt;/div&gt;&lt;div&gt;UpdateTime&lt;/div&gt;" style="align=left;strokeColor=none;fillColor=none;spacingLeft=4;fontSize=12;verticalAlign=top;resizable=0;rotatable=0;part=1;html=1;" parent="uuThjyKwAVMsswqWCtZC-11" vertex="1">
          <mxGeometry y="30" width="200" height="140" as="geometry" />
        </mxCell>
        <mxCell id="uuThjyKwAVMsswqWCtZC-13" value="Sales Contract Table" style="swimlane;childLayout=stackLayout;horizontal=1;startSize=35;horizontalStack=0;rounded=1;fontSize=14;fontStyle=0;strokeWidth=2;resizeParent=0;resizeLast=1;shadow=0;dashed=0;align=center;arcSize=4;whiteSpace=wrap;html=1;" parent="1" vertex="1">
          <mxGeometry x="110" y="495" width="180" height="175" as="geometry" />
        </mxCell>
        <mxCell id="uuThjyKwAVMsswqWCtZC-14" value="Sales Contract ID {PK}&lt;div&gt;Owner/Party A Customer ID&lt;br&gt;Buyer/Party B Customer ID&lt;br&gt;&lt;/div&gt;&lt;div&gt;Property ID&lt;br&gt;&lt;/div&gt;&lt;div&gt;Sale Price&lt;br&gt;&lt;/div&gt;&lt;div&gt;Transaction Date&lt;br&gt;&lt;/div&gt;&lt;div&gt;IsFinalized&lt;/div&gt;&lt;div&gt;CreateTime&lt;/div&gt;&lt;div&gt;UpdateTime&lt;/div&gt;" style="align=left;strokeColor=none;fillColor=none;spacingLeft=4;fontSize=12;verticalAlign=top;resizable=0;rotatable=0;part=1;html=1;" parent="uuThjyKwAVMsswqWCtZC-13" vertex="1">
          <mxGeometry y="35" width="180" height="140" as="geometry" />
        </mxCell>
        <mxCell id="uuThjyKwAVMsswqWCtZC-15" value="Rental Contract Table" style="swimlane;childLayout=stackLayout;horizontal=1;startSize=35;horizontalStack=0;rounded=1;fontSize=14;fontStyle=0;strokeWidth=2;resizeParent=0;resizeLast=1;shadow=0;dashed=0;align=center;arcSize=4;whiteSpace=wrap;html=1;" parent="1" vertex="1">
          <mxGeometry x="660" y="505" width="180" height="205" as="geometry" />
        </mxCell>
        <mxCell id="uuThjyKwAVMsswqWCtZC-16" value="Rental contract ID&amp;nbsp;{PK}&lt;div&gt;&lt;div&gt;Owner/Party A Customer ID&lt;br&gt;Tenant/Party B Customer ID&lt;br&gt;&lt;/div&gt;&lt;div&gt;Property ID&lt;/div&gt;&lt;/div&gt;&lt;div&gt;Rental Price&lt;br&gt;&lt;/div&gt;&lt;div&gt;Deposit Price&lt;/div&gt;&lt;div&gt;Start Date&lt;br&gt;&lt;/div&gt;&lt;div&gt;End Date&lt;br&gt;&lt;/div&gt;&lt;div&gt;IsFinalized&lt;/div&gt;&lt;div&gt;CreateTime&lt;/div&gt;&lt;div&gt;UpdateTime&lt;/div&gt;" style="align=left;strokeColor=none;fillColor=none;spacingLeft=4;fontSize=12;verticalAlign=top;resizable=0;rotatable=0;part=1;html=1;" parent="uuThjyKwAVMsswqWCtZC-15" vertex="1">
          <mxGeometry y="35" width="180" height="170" as="geometry" />
        </mxCell>
        <mxCell id="uuThjyKwAVMsswqWCtZC-17" style="edgeStyle=orthogonalEdgeStyle;rounded=0;orthogonalLoop=1;jettySize=auto;html=1;entryX=0;entryY=0.303;entryDx=0;entryDy=0;entryPerimeter=0;endArrow=none;endFill=0;strokeWidth=2;exitX=1;exitY=0.25;exitDx=0;exitDy=0;" parent="1" source="uuThjyKwAVMsswqWCtZC-10" target="uuThjyKwAVMsswqWCtZC-4" edge="1">
          <mxGeometry relative="1" as="geometry">
            <mxPoint x="310" y="290" as="sourcePoint" />
          </mxGeometry>
        </mxCell>
        <mxCell id="uuThjyKwAVMsswqWCtZC-18" style="edgeStyle=orthogonalEdgeStyle;rounded=0;orthogonalLoop=1;jettySize=auto;html=1;endArrow=none;endFill=0;strokeWidth=2;entryX=1;entryY=0.297;entryDx=0;entryDy=0;entryPerimeter=0;" parent="1" target="uuThjyKwAVMsswqWCtZC-4" edge="1">
          <mxGeometry relative="1" as="geometry">
            <mxPoint x="649" y="249" as="sourcePoint" />
            <mxPoint x="550" y="251" as="targetPoint" />
          </mxGeometry>
        </mxCell>
        <mxCell id="uuThjyKwAVMsswqWCtZC-20" style="edgeStyle=orthogonalEdgeStyle;rounded=0;orthogonalLoop=1;jettySize=auto;html=1;exitX=-0.011;exitY=0.059;exitDx=0;exitDy=0;entryX=0.75;entryY=1;entryDx=0;entryDy=0;endArrow=none;endFill=0;strokeWidth=2;exitPerimeter=0;" parent="1" target="uuThjyKwAVMsswqWCtZC-4" edge="1" source="uuThjyKwAVMsswqWCtZC-16">
          <mxGeometry relative="1" as="geometry">
            <mxPoint x="650" y="585" as="sourcePoint" />
            <mxPoint x="512.5" y="410" as="targetPoint" />
            <Array as="points">
              <mxPoint x="513" y="550" />
            </Array>
          </mxGeometry>
        </mxCell>
        <mxCell id="uuThjyKwAVMsswqWCtZC-25" style="edgeStyle=orthogonalEdgeStyle;rounded=0;orthogonalLoop=1;jettySize=auto;html=1;exitX=0.25;exitY=1;exitDx=0;exitDy=0;endArrow=none;endFill=0;strokeWidth=2;" parent="1" source="uuThjyKwAVMsswqWCtZC-16" target="uuThjyKwAVMsswqWCtZC-12" edge="1">
          <mxGeometry relative="1" as="geometry" />
        </mxCell>
        <mxCell id="uuThjyKwAVMsswqWCtZC-26" style="edgeStyle=orthogonalEdgeStyle;rounded=0;orthogonalLoop=1;jettySize=auto;html=1;exitX=1;exitY=0;exitDx=0;exitDy=0;entryX=0.25;entryY=1;entryDx=0;entryDy=0;endArrow=none;endFill=0;strokeWidth=2;" parent="1" source="uuThjyKwAVMsswqWCtZC-14" target="uuThjyKwAVMsswqWCtZC-4" edge="1">
          <mxGeometry relative="1" as="geometry">
            <Array as="points">
              <mxPoint x="438" y="550" />
            </Array>
          </mxGeometry>
        </mxCell>
        <mxCell id="uuThjyKwAVMsswqWCtZC-27" style="edgeStyle=orthogonalEdgeStyle;rounded=0;orthogonalLoop=1;jettySize=auto;html=1;exitX=0.5;exitY=1;exitDx=0;exitDy=0;entryX=0;entryY=0.5;entryDx=0;entryDy=0;endArrow=none;endFill=0;strokeWidth=2;" parent="1" source="uuThjyKwAVMsswqWCtZC-14" target="uuThjyKwAVMsswqWCtZC-12" edge="1">
          <mxGeometry relative="1" as="geometry" />
        </mxCell>
        <mxCell id="uuThjyKwAVMsswqWCtZC-29" value="&lt;b&gt;*&lt;/b&gt;" style="text;html=1;align=center;verticalAlign=middle;resizable=0;points=[];autosize=1;strokeColor=none;fillColor=none;" parent="1" vertex="1">
          <mxGeometry x="280" y="260" width="30" height="30" as="geometry" />
        </mxCell>
        <mxCell id="uuThjyKwAVMsswqWCtZC-30" value="&lt;b&gt;*&lt;/b&gt;" style="text;html=1;align=center;verticalAlign=middle;resizable=0;points=[];autosize=1;strokeColor=none;fillColor=none;" parent="1" vertex="1">
          <mxGeometry x="290" y="520" width="30" height="30" as="geometry" />
        </mxCell>
        <mxCell id="uuThjyKwAVMsswqWCtZC-31" value="1" style="text;html=1;align=center;verticalAlign=middle;resizable=0;points=[];autosize=1;strokeColor=none;fillColor=none;" parent="1" vertex="1">
          <mxGeometry x="369" y="260" width="30" height="30" as="geometry" />
        </mxCell>
        <mxCell id="uuThjyKwAVMsswqWCtZC-32" value="1" style="text;html=1;align=center;verticalAlign=middle;resizable=0;points=[];autosize=1;strokeColor=none;fillColor=none;" parent="1" vertex="1">
          <mxGeometry x="550" y="260" width="30" height="30" as="geometry" />
        </mxCell>
        <mxCell id="uuThjyKwAVMsswqWCtZC-33" value="1" style="text;html=1;align=center;verticalAlign=middle;resizable=0;points=[];autosize=1;strokeColor=none;fillColor=none;" parent="1" vertex="1">
          <mxGeometry x="620" y="260" width="30" height="30" as="geometry" />
        </mxCell>
        <mxCell id="uuThjyKwAVMsswqWCtZC-34" value="&lt;b&gt;1&lt;/b&gt;" style="text;html=1;align=center;verticalAlign=middle;resizable=0;points=[];autosize=1;strokeColor=none;fillColor=none;" parent="1" vertex="1">
          <mxGeometry x="399" y="465" width="30" height="30" as="geometry" />
        </mxCell>
        <mxCell id="uuThjyKwAVMsswqWCtZC-35" value="&lt;b&gt;1&lt;/b&gt;" style="text;html=1;align=center;verticalAlign=middle;resizable=0;points=[];autosize=1;strokeColor=none;fillColor=none;" parent="1" vertex="1">
          <mxGeometry x="520" y="465" width="30" height="30" as="geometry" />
        </mxCell>
        <mxCell id="uuThjyKwAVMsswqWCtZC-36" value="&lt;b&gt;*&lt;/b&gt;" style="text;html=1;align=center;verticalAlign=middle;resizable=0;points=[];autosize=1;strokeColor=none;fillColor=none;" parent="1" vertex="1">
          <mxGeometry x="620" y="520" width="30" height="30" as="geometry" />
        </mxCell>
        <mxCell id="uuThjyKwAVMsswqWCtZC-38" value="&lt;b&gt;*&lt;/b&gt;" style="text;html=1;align=center;verticalAlign=middle;resizable=0;points=[];autosize=1;strokeColor=none;fillColor=none;" parent="1" vertex="1">
          <mxGeometry x="575" y="740" width="30" height="30" as="geometry" />
        </mxCell>
        <mxCell id="uuThjyKwAVMsswqWCtZC-39" value="&lt;b&gt;*&lt;/b&gt;" style="text;html=1;align=center;verticalAlign=middle;resizable=0;points=[];autosize=1;strokeColor=none;fillColor=none;" parent="1" vertex="1">
          <mxGeometry x="670" y="740" width="30" height="30" as="geometry" />
        </mxCell>
        <mxCell id="uuThjyKwAVMsswqWCtZC-40" value="&lt;b&gt;*&lt;/b&gt;" style="text;html=1;align=center;verticalAlign=middle;resizable=0;points=[];autosize=1;strokeColor=none;fillColor=none;" parent="1" vertex="1">
          <mxGeometry x="345" y="740" width="30" height="30" as="geometry" />
        </mxCell>
        <mxCell id="uuThjyKwAVMsswqWCtZC-41" value="&lt;b&gt;*&lt;/b&gt;" style="text;html=1;align=center;verticalAlign=middle;resizable=0;points=[];autosize=1;strokeColor=none;fillColor=none;" parent="1" vertex="1">
          <mxGeometry x="200" y="740" width="30" height="30" as="geometry" />
        </mxCell>
      </root>
    </mxGraphModel>
  </diagram>
</mxfile>
